<?xml version="1.0" standalone="no"?>
<!DOCTYPE svg PUBLIC "-//W3C//DTD SVG 20010904//EN"
 "http://www.w3.org/TR/2001/REC-SVG-20010904/DTD/svg10.dtd">
<svg version="1.0" xmlns="http://www.w3.org/2000/svg"
 width="500.000000pt" height="500.000000pt" viewBox="0 0 500.000000 500.000000"
 preserveAspectRatio="xMidYMid meet">

<g transform="translate(0.000000,500.000000) scale(0.100000,-0.100000)"
fill="#00A82D" stroke="none">
<path d="M2355 3097 c-131 -44 -248 -144 -306 -263 l-34 -68 -3 -243 c-2 -173
0 -243 8 -243 23 0 94 43 119 72 41 49 49 85 50 214 1 145 15 195 77 263 61
68 126 95 229 95 44 0 97 -4 118 -8 l37 -9 0 91 c0 61 -4 93 -12 98 -23 15
-240 15 -283 1z"/>
<path d="M2890 2644 c0 -285 -4 -461 -11 -488 -14 -58 -74 -134 -133 -170 -43
-27 -58 -30 -135 -32 l-86 -2 -3 -90 -3 -90 27 -6 c15 -4 52 -4 83 -1 158 19
264 80 356 205 81 111 79 94 83 638 l3 482 -91 0 -90 0 0 -446z"/>
<path d="M2383 2624 c-10 -4 -13 -40 -13 -128 0 -207 -28 -295 -127 -395 -61
-61 -131 -100 -195 -109 l-38 -5 0 -95 0 -95 43 7 c175 28 315 134 413 314
l45 82 88 0 c62 0 90 4 93 13 3 6 2 102 -1 212 l-6 200 -145 2 c-80 1 -151 -1
-157 -3z"/>
</g>
</svg>
