<?xml version="1.0" standalone="no"?>
<!DOCTYPE svg PUBLIC "-//W3C//DTD SVG 20010904//EN"
 "http://www.w3.org/TR/2001/REC-SVG-20010904/DTD/svg10.dtd">
<svg version="1.0" xmlns="http://www.w3.org/2000/svg"
 width="500.000000pt" height="500.000000pt" viewBox="0 0 500.000000 500.000000"
 preserveAspectRatio="xMidYMid meet">
<metadata>
Created by potrace 1.16, written by Peter Selinger 2001-2019
</metadata>
<g transform="translate(0.000000,500.000000) scale(0.100000,-0.100000)"
fill="#000000" stroke="none">
<path d="M2451 4088 c-24 -29 -64 -95 -89 -146 -36 -75 -50 -93 -71 -98 -175
-38 -316 -91 -448 -169 l-74 -43 -74 24 c-83 26 -179 44 -242 44 -37 0 -43 -3
-43 -21 0 -29 57 -197 81 -237 23 -40 24 -56 4 -72 -31 -26 -126 -179 -166
-270 -23 -52 -54 -135 -68 -184 l-26 -88 -45 -17 c-44 -17 -164 -95 -223 -144
l-27 -23 22 -21 c28 -25 192 -134 235 -157 27 -13 33 -23 38 -63 27 -194 104
-394 218 -563 142 -211 415 -409 660 -480 263 -76 458 -79 731 -10 299 75 585
293 748 570 78 133 148 333 164 473 7 56 9 59 48 79 32 16 168 107 241 161 21
15 -172 157 -251 184 -30 10 -44 21 -44 33 0 35 -60 202 -110 303 -27 56 -74
135 -105 174 l-55 72 29 58 c36 73 87 230 78 240 -13 12 -198 -14 -277 -39
l-75 -24 -130 67 c-119 62 -267 118 -355 134 -19 4 -42 9 -51 11 -9 3 -38 46
-63 97 -26 51 -68 116 -94 145 l-47 52 -44 -52z m284 -378 c254 -61 430 -161
603 -340 184 -190 312 -475 312 -694 l0 -63 -98 -11 c-197 -23 -428 -124 -629
-275 -29 -22 -53 -43 -53 -47 0 -4 49 -33 110 -64 l110 -57 85 27 85 28 52
-18 c49 -17 218 -86 226 -92 8 -6 -20 -74 -30 -74 -5 0 -40 13 -76 29 -145 64
-181 74 -213 61 -16 -7 -29 -16 -29 -20 0 -9 80 -55 188 -110 35 -18 66 -38
69 -46 3 -7 -5 -27 -16 -43 l-22 -30 -52 33 c-53 34 -175 103 -235 134 -37 18
-36 18 -232 -91 l-54 -31 79 -70 c43 -39 114 -105 158 -147 l79 -75 -40 -27
-40 -26 -152 149 -151 149 -82 -56 c-45 -31 -97 -67 -114 -80 l-32 -25 -3
-141 -3 -142 -37 -3 -38 -3 0 144 0 145 -104 71 c-58 39 -112 74 -121 77 -17
7 -78 -47 -225 -199 l-85 -88 -35 26 c-19 14 -35 29 -35 33 0 7 162 164 252
243 59 52 62 46 -50 101 -31 16 -80 42 -107 58 l-50 30 -88 -52 c-48 -28 -117
-70 -154 -94 l-67 -44 -27 36 c-30 39 -31 38 39 75 21 11 76 43 124 71 l86 51
-28 14 c-34 18 -63 11 -202 -48 -51 -21 -95 -39 -98 -39 -6 0 -35 56 -35 68 0
9 172 80 248 103 39 11 49 10 122 -15 l79 -28 108 57 c59 31 112 60 116 65 10
9 -181 139 -293 199 -107 57 -273 109 -391 123 l-99 11 0 36 c3 357 255 750
605 946 115 65 289 118 455 139 69 9 257 -4 335 -24z"/>
<path d="M2206 3491 c-16 -18 -16 -23 9 -105 29 -90 45 -107 85 -86 11 6 20
21 20 33 0 30 -36 145 -50 163 -17 20 -44 18 -64 -5z"/>
<path d="M2733 3503 c-7 -2 -25 -43 -39 -90 l-27 -85 21 -21 c17 -17 25 -19
45 -10 18 8 28 29 45 86 27 92 27 104 3 117 -21 11 -29 11 -48 3z"/>
<path d="M2472 3404 c-21 -14 -22 -22 -22 -149 0 -108 3 -137 16 -149 18 -19
28 -20 55 -6 17 10 19 23 19 155 0 132 -2 145 -19 155 -25 13 -22 13 -49 -6z"/>
<path d="M2062 3244 c-12 -8 -22 -21 -22 -28 0 -6 30 -57 68 -111 71 -106 94
-121 126 -86 17 19 16 22 -40 116 -50 83 -84 125 -104 125 -3 0 -16 -7 -28
-16z"/>
<path d="M2873 3238 c-28 -31 -123 -187 -123 -202 0 -17 21 -36 40 -36 21 0
53 36 113 126 51 77 55 94 31 118 -21 22 -37 20 -61 -6z"/>
<path d="M1650 3090 c-6 -12 -9 -28 -6 -38 6 -16 140 -92 163 -92 5 0 18 9 29
21 24 27 13 43 -62 91 -68 42 -108 48 -124 18z"/>
<path d="M3231 3073 c-74 -44 -91 -65 -75 -90 18 -28 48 -26 102 6 27 17 54
31 60 31 17 0 41 41 34 59 -15 41 -41 40 -121 -6z"/>
<path d="M1922 3028 c-30 -30 -14 -56 64 -108 79 -52 113 -61 134 -35 25 30 3
61 -77 109 -81 48 -101 54 -121 34z"/>
<path d="M2964 3002 c-34 -21 -69 -43 -78 -51 -31 -26 -14 -81 26 -81 10 0 52
21 93 48 77 48 98 79 75 107 -19 23 -49 17 -116 -23z"/>
<path d="M2410 2974 c-156 -42 -258 -169 -268 -335 -10 -177 80 -312 245 -368
34 -12 65 -21 68 -21 3 0 5 34 5 75 l0 75 -37 15 c-89 37 -142 121 -143 221
l0 62 63 54 c145 126 157 127 284 20 89 -74 93 -79 93 -118 0 -72 -27 -142
-75 -189 -24 -24 -58 -48 -77 -53 -30 -7 -33 -12 -36 -52 -2 -25 -1 -59 3 -76
5 -31 7 -31 41 -24 111 25 214 113 254 216 32 81 33 205 2 285 -41 104 -133
184 -247 214 -72 18 -103 18 -175 -1z"/>
<path d="M1813 2814 c-7 -3 -13 -18 -13 -34 0 -15 6 -32 13 -37 6 -6 56 -18
110 -28 77 -13 101 -14 112 -5 18 15 20 54 3 67 -27 21 -198 49 -225 37z"/>
<path d="M3046 2804 c-88 -16 -106 -26 -106 -59 0 -44 21 -49 127 -30 123 22
158 49 117 89 -18 19 -33 19 -138 0z"/>
<path d="M2433 2732 c-83 -70 -86 -75 -79 -125 7 -48 53 -111 86 -120 19 -5
20 -1 20 72 0 63 4 81 18 95 18 15 20 15 38 -5 14 -15 20 -40 22 -94 4 -73 4
-73 27 -63 39 17 68 68 73 123 l4 52 -68 56 c-38 31 -72 57 -76 57 -4 0 -33
-22 -65 -48z"/>
<path d="M2140 2186 c-53 -21 -150 -74 -150 -81 0 -2 37 -24 83 -49 45 -25 96
-55 113 -66 l31 -20 92 67 c50 37 91 70 91 73 0 6 -196 102 -203 99 -1 0 -27
-11 -57 -23z"/>
<path d="M2770 2198 c-116 -50 -179 -82 -174 -90 3 -5 44 -38 91 -73 l86 -65
36 22 c20 12 71 42 115 66 72 42 77 47 60 59 -18 14 -180 94 -186 92 -2 0 -14
-5 -28 -11z"/>
<path d="M2403 2006 c-46 -34 -87 -66 -93 -72 -10 -10 35 -48 157 -132 l32
-23 101 75 100 74 -52 36 c-29 20 -73 52 -98 71 -25 19 -49 34 -55 34 -5 0
-47 -28 -92 -63z"/>
<path d="M1758 1155 c-57 -32 -40 -96 32 -115 25 -7 40 -17 40 -27 0 -13 -8
-14 -50 -9 -41 6 -51 4 -57 -9 -7 -20 5 -33 43 -44 43 -12 96 8 112 43 13 25
12 31 -5 54 -10 14 -36 30 -57 36 -50 14 -46 31 7 31 51 0 65 29 22 45 -35 13
-55 12 -87 -5z"/>
<path d="M2636 1155 c-8 -8 -22 -37 -31 -65 -9 -27 -20 -52 -24 -54 -4 -3 -19
23 -33 57 -21 51 -30 63 -52 65 -15 2 -26 -2 -26 -9 0 -6 19 -54 41 -106 38
-85 44 -94 66 -91 21 2 31 18 64 93 21 50 38 95 39 101 0 19 -28 24 -44 9z"/>
<path d="M2789 1150 c-68 -36 -77 -125 -18 -174 52 -44 141 -28 167 29 29 63
6 126 -54 151 -42 18 -51 17 -95 -6z"/>
<path d="M1960 1081 c0 -102 19 -131 86 -131 34 0 51 6 69 25 22 22 25 32 25
105 0 79 0 80 -25 80 -24 0 -25 -2 -25 -68 0 -73 -10 -92 -47 -92 -21 0 -45
34 -42 58 1 4 1 28 0 55 -1 40 -4 47 -21 47 -18 0 -20 -7 -20 -79z"/>
<path d="M2220 1054 c0 -104 0 -105 23 -102 19 3 23 10 27 57 l5 54 45 -57
c45 -56 73 -70 84 -40 3 9 6 49 6 89 0 86 -6 105 -31 105 -16 0 -19 -8 -19
-50 0 -27 -4 -50 -8 -50 -4 0 -25 23 -46 50 -27 35 -45 50 -62 50 -24 0 -24
-1 -24 -106z"/>
<path d="M3020 1055 l0 -106 73 3 c64 3 72 5 72 23 0 17 -8 20 -47 23 l-47 3
-3 77 c-3 71 -5 77 -25 80 -23 3 -23 2 -23 -103z"/>
<path d="M3200 1141 c0 -14 8 -21 28 -23 27 -3 27 -4 30 -86 3 -79 4 -83 25
-80 20 3 22 9 25 86 l3 82 28 0 c27 0 47 21 34 34 -4 3 -44 6 -90 6 -75 0 -83
-2 -83 -19z"/>
</g>
</svg>
